<svg id="Group_18078" data-name="Group 18078" xmlns="http://www.w3.org/2000/svg" xmlns:xlink="http://www.w3.org/1999/xlink" width="30.745" height="25.916" viewBox="0 0 30.745 25.916">
  <defs>
    <clipPath id="clip-path">
      <rect id="Rectangle_4038" data-name="Rectangle 4038" width="30.745" height="25.915" fill="#929191"/>
    </clipPath>
  </defs>
  <g id="Group_18077" data-name="Group 18077" clip-path="url(#clip-path)">
    <path id="Path_23115" data-name="Path 23115" d="M0,11.24c.06-.226.1-.457.183-.676A2.869,2.869,0,0,1,4.427,9.105c.127.079.257.213.385.212s.243-.145.363-.228q1.6-1.116,3.2-2.231a.181.181,0,0,0,.093-.238,2.88,2.88,0,0,1,2.342-3.71,2.829,2.829,0,0,1,3.143,2.078,8.353,8.353,0,0,1,.158.878.217.217,0,0,0,.171.2q1.343.45,2.682.915A.2.2,0,0,0,17.2,6.93a6.279,6.279,0,0,1,.8-.7,2.76,2.76,0,0,1,3.025-.043c.412.23.4.249.783-.01q1.553-1.062,3.1-2.129c.239-.164.24-.167.167-.457a2.86,2.86,0,0,1-.044-1.227,2.876,2.876,0,0,1,5.65-.056c.018.091.041.18.062.271v.565a7.254,7.254,0,0,1-.255.867A2.86,2.86,0,0,1,26.318,5.3c-.115-.072-.227-.148-.342-.223a.2.2,0,0,0-.044.017L22.659,7.381c-.009.006-.016.014-.025.019a.588.588,0,0,0-.29.672,3.133,3.133,0,0,1-.155,1.679,2.894,2.894,0,0,1-3.04,1.737,2.819,2.819,0,0,1-2.426-2.294c-.039-.221-.07-.444-.1-.666a.193.193,0,0,0-.147-.188q-1.357-.457-2.71-.929a.174.174,0,0,0-.218.048c-.108.12-.226.232-.343.345a2.839,2.839,0,0,1-3.57.359c-.306-.2-.308-.2-.6.005q-1.649,1.143-3.3,2.287a.206.206,0,0,0-.1.27,2.908,2.908,0,0,1-2.266,3.638A2.907,2.907,0,0,1,.224,12.6,6.989,6.989,0,0,1,0,11.805V11.24m20.927-2.6A1.372,1.372,0,0,0,19.47,7.216,1.445,1.445,0,0,0,18.1,8.637a1.489,1.489,0,0,0,1.343,1.442,1.379,1.379,0,0,0,1.481-1.438M2.88,12.973a1.568,1.568,0,0,0,1.449-1.426,1.549,1.549,0,0,0-1.467-1.466,1.566,1.566,0,0,0-1.427,1.447A1.561,1.561,0,0,0,2.88,12.973m8.294-5.8a1.406,1.406,0,0,0,1.468-1.4,1.446,1.446,0,0,0-1.473-1.431A1.406,1.406,0,0,0,9.786,5.762a1.385,1.385,0,0,0,1.387,1.407M27.865,1.44a1.548,1.548,0,0,0-1.449,1.42,1.545,1.545,0,0,0,1.433,1.454A1.5,1.5,0,0,0,29.3,2.892,1.5,1.5,0,0,0,27.865,1.44" transform="translate(0 0)" fill="#929191"/>
    <path id="Path_23116" data-name="Path 23116" d="M.367,415.01c.008-.093.02-.186.023-.279a.859.859,0,0,1,.868-.879c1.306-.007,2.613,0,3.92.006a.821.821,0,0,1,.9.823c0,2.305-.007,4.611,0,6.916a.842.842,0,0,1-.81.82c-1.348-.009-2.7,0-4.045-.007a.758.758,0,0,1-.8-.783c-.022-.758-.028-1.515-.042-2.273,0-.088-.012-.176-.018-.264V415.01" transform="translate(-0.352 -396.537)" fill="#929191"/>
    <path id="Path_23117" data-name="Path 23117" d="M603.788,215.45q0,3.411,0,6.822c0,.386-.019.773-.047,1.159a.717.717,0,0,1-.562.578c-.385.032-.772.046-1.158.047-1.014,0-2.028-.011-3.042-.014a.807.807,0,0,1-.654-.275.616.616,0,0,1-.18-.4c-.014-.617-.046-1.233-.047-1.849q-.01-6.854-.011-13.708a.962.962,0,0,1,.163-.606.915.915,0,0,1,.8-.386c.795,0,1.589-.005,2.384,0q.792,0,1.583.032a.742.742,0,0,1,.746.73c.02.318.029.637.029.956q0,3.458,0,6.917h0" transform="translate(-573.067 -198.164)" fill="#929191"/>
    <path id="Path_23118" data-name="Path 23118" d="M205.611,283.091v6.275a.912.912,0,0,1-.748.872c-.436.041-.876.04-1.315.038-.92,0-1.84-.037-2.76-.029-.468,0-.685-.3-.9-.624a.274.274,0,0,1-.015-.137q0-5.561.008-11.122c0-.554.045-1.107.05-1.661a.811.811,0,0,1,.8-.795c1.333,0,2.666-.01,4,0a.987.987,0,0,1,.867.65.388.388,0,0,1,.014.169q0,3.184,0,6.369" transform="translate(-191.512 -264.361)" fill="#929191"/>
    <path id="Path_23119" data-name="Path 23119" d="M404.548,350.4q0,2.462,0,4.924a.937.937,0,0,1-.631.754c-.426.039-.855.056-1.283.06-.93.009-1.861.012-2.791,0a1.278,1.278,0,0,1-.554-.128.82.82,0,0,1-.45-.784c0-.523-.025-1.045-.024-1.568q.008-4.007.022-8.014a.869.869,0,0,1,.4-.831.917.917,0,0,1,.418-.148c.977-.015,1.954-.015,2.931-.012.407,0,.814.024,1.222.035a.587.587,0,0,1,.414.193,1.025,1.025,0,0,1,.337.783c-.019,1.578-.009,3.157-.009,4.736" transform="translate(-382.133 -330.232)" fill="#929191"/>
  </g>
</svg>
