<svg xmlns="http://www.w3.org/2000/svg" width="15.025" height="20" viewBox="0 0 15.025 20">
  <g id="_2080ece8bec60bd11b30101b135f8e49" data-name="2080ece8bec60bd11b30101b135f8e49" transform="translate(-131.887 -10)">
    <g id="Group_16724" data-name="Group 16724" transform="translate(131.887 10)">
      <path id="Path_21307" data-name="Path 21307" d="M136.3-497.905c-1.687,2.255-3.148,4.212-3.241,4.357a9.449,9.449,0,0,0-.8,1.687,7.522,7.522,0,0,0,2.306,8.1,7.506,7.506,0,0,0,9.67,0,7.515,7.515,0,0,0,2.3-8.1,9.2,9.2,0,0,0-.8-1.687c-.255-.383-6.3-8.452-6.338-8.452C139.383-502,137.99-500.156,136.3-497.905Zm5.723,1.464c1.429,1.907,2.674,3.6,2.768,3.758a6.316,6.316,0,0,1,.759,2.016,7.489,7.489,0,0,1,.02,2.231,6.291,6.291,0,0,1-4.365,4.913,5.108,5.108,0,0,1-1.809.251,5.08,5.08,0,0,1-1.163-.086,6.3,6.3,0,0,1-4.991-4.992,7.214,7.214,0,0,1,0-2.321,6.463,6.463,0,0,1,.795-2.079c.208-.337,5.328-7.18,5.367-7.164C139.419-499.909,140.6-498.347,142.026-496.441Z" transform="translate(-131.887 502)" fill="#fff"/>
      <path id="Path_21308" data-name="Path 21308" d="M253.908,110.286a5.1,5.1,0,0,0,4.017,4.561,6.308,6.308,0,0,0,1.957,0,5.1,5.1,0,0,0,4.017-4.561l.027-.356H253.88Z" transform="translate(-251.39 -97.442)" fill="#fff"/>
    </g>
  </g>
</svg>
