<svg xmlns="http://www.w3.org/2000/svg" width="58" height="58" viewBox="0 0 58 58">
  <g id="Group_18108" data-name="Group 18108" transform="translate(-4124 -5023)">
    <rect id="Rectangle_4019" data-name="Rectangle 4019" width="58" height="58" rx="12" transform="translate(4124 5023)"/>
    <g id="Group_18022" data-name="Group 18022" transform="translate(24.216 4.244)">
      <path id="Path_23104" data-name="Path 23104" d="M37.379,25.633c-.172,0-.3.111-.385.375s-.061.223-.1.344c-.759,2.582-2.582,6.075-5.427,6.075-2.521,0-3.362-2.025-3.362-5.933V8.45c0-1.013-.375-1.63-1.175-1.63H23.245c-.759,0-1.175.6-1.175,1.63V29.5c0,5.761,3.27,9.72,8.1,9.72,3.777,0,6.419-2.217,8.1-5A18.377,18.377,0,0,0,40.5,28.68a4.223,4.223,0,0,0,.122-.77C40.65,27.253,37.754,25.633,37.379,25.633Z" transform="translate(4108.101 5024.557)" fill="#fff"/>
      <path id="Path_23105" data-name="Path 23105" d="M0,5.22s13.234,15.188,38.476,8.1l-.719,5.012S17.507,25.42-.04,13.523Z" transform="translate(4107.824 5024.536)" fill="#fff"/>
    </g>
  </g>
</svg>
