<svg xmlns="http://www.w3.org/2000/svg" width="22.973" height="16.33" viewBox="0 0 22.973 16.33">
  <g id="Group_18001" data-name="Group 18001" transform="translate(-1874 -4044.072)">
    <path id="Path_21296" data-name="Path 21296" d="M32.973,141.674a1.524,1.524,0,0,1-1.641,1.374H11.641A1.524,1.524,0,0,1,10,141.674h0a1.524,1.524,0,0,1,1.641-1.374H31.332a1.526,1.526,0,0,1,1.641,1.374Z" transform="translate(1864 3903.772)"/>
    <path id="Path_21297" data-name="Path 21297" d="M26.489,431.374a1.524,1.524,0,0,1-1.641,1.374H11.641A1.524,1.524,0,0,1,10,431.374h0A1.524,1.524,0,0,1,11.641,430h13.2a1.526,1.526,0,0,1,1.643,1.374Z" transform="translate(1864 3620.863)"/>
    <path id="Path_21298" data-name="Path 21298" d="M21.566,721.074a1.524,1.524,0,0,1-1.641,1.374H11.641A1.524,1.524,0,0,1,10,721.074h0a1.524,1.524,0,0,1,1.641-1.374h8.284a1.527,1.527,0,0,1,1.641,1.374Z" transform="translate(1864 3337.954)"/>
  </g>
</svg>
