<svg id="chat-dots-fill" xmlns="http://www.w3.org/2000/svg" width="24.143" height="22.53" viewBox="0 0 24.143 22.53">
  <g id="Group_17973" data-name="Group 17973" transform="translate(0 0)">
    <path id="Path_23086" data-name="Path 23086" d="M24.143,13.562c0,5.833-5.4,10.562-12.071,10.562a13.671,13.671,0,0,1-3.541-.462,22.035,22.035,0,0,1-6.309,1.862.392.392,0,0,1-.412-.546A16.085,16.085,0,0,0,2.971,20.5,9.812,9.812,0,0,1,0,13.562C0,7.729,5.4,3,12.071,3S24.143,7.729,24.143,13.562Zm-16.6,0a1.509,1.509,0,1,0-1.509,1.509A1.509,1.509,0,0,0,7.545,13.562Zm6.036,0a1.509,1.509,0,1,0-1.509,1.509A1.509,1.509,0,0,0,13.58,13.562Zm4.527,1.509A1.509,1.509,0,1,0,16.6,13.562,1.509,1.509,0,0,0,18.107,15.071Z" transform="translate(0 -3)" fill="#929191"/>
  </g>
</svg>
