<svg id="Group_18066" data-name="Group 18066" xmlns="http://www.w3.org/2000/svg" width="24" height="24" viewBox="0 0 24 24">
  <rect id="Rectangle_3462" data-name="Rectangle 3462" width="24" height="24" fill="none"/>
  <g id="human-computer-interaction-1" transform="translate(0.683 0.683)">
    <path id="Path_21371" data-name="Path 21371" d="M246.468,262.99c-.653-3.021-2.8-6.018-4.6-5.5a2.563,2.563,0,0,0-1.458,1,2.055,2.055,0,0,0-1.756-.039,2.175,2.175,0,0,0-1.017.9,2.484,2.484,0,0,0-2.246.047,2.709,2.709,0,0,0-.486.289c-1.966-2.778-3.572-4.032-5.02-3.7-2.05.464-2.05,2.252-.495,4.594l2.986,4.617c-1.639-.308-2.824-.044-3.526.895-1.149,1.536.067,2.955,2.89,4.225l5.456,2.427a.808.808,0,1,0,.657-1.477l-5.453-2.425a6.588,6.588,0,0,1-2.162-1.35c-.194-.226-.2-.289-.094-.431.4-.534,1.64-.534,3.8.273a.808.808,0,0,0,.961-1.2l-4.167-6.444c-1.036-1.559-1.036-2.01-.5-2.131.709-.16,2.2,1.248,4.182,4.309a4.359,4.359,0,0,0,.692,1.086.808.808,0,0,0,1.308-.943q-.286-.468-.582-.93c.014-.095.1-.155.235-.22a.908.908,0,0,1,1.318.4.808.808,0,0,0,1.466-.419c.032-.535.18-.791.443-.906.226-.1.508-.014.947.4a.808.808,0,0,0,1.363-.513c.037-.418.228-.638.7-.775.5-.144,2.1,2.089,2.576,4.287a15.36,15.36,0,0,1-.008,5.637.808.808,0,1,0,1.6.256A16.937,16.937,0,0,0,246.468,262.99Z" transform="translate(-224.125 -251.08)"/>
    <path id="Path_21372" data-name="Path 21372" d="M69.982,85.018H66.533a.93.93,0,0,1-.916-.943V66.56a.93.93,0,0,1,.916-.943h9.485a.93.93,0,0,1,.917.943.808.808,0,0,0,1.617,0A2.546,2.546,0,0,0,76.018,64H66.533A2.546,2.546,0,0,0,64,66.56V84.075a2.546,2.546,0,0,0,2.533,2.559h3.449a.808.808,0,0,0,0-1.617Z" transform="translate(-64 -64)"/>
  </g>
</svg>
