<svg xmlns="http://www.w3.org/2000/svg" xmlns:xlink="http://www.w3.org/1999/xlink" width="24" height="24" viewBox="0 0 24 24">
  <defs>
    <clipPath id="clip-path">
      <rect id="Rectangle_3463" data-name="Rectangle 3463" width="23.876" height="23.914"/>
    </clipPath>
  </defs>
  <g id="Group_16939" data-name="Group 16939" transform="translate(0.003)">
    <rect id="Rectangle_3464" data-name="Rectangle 3464" width="24" height="24" transform="translate(-0.003)" fill="none"/>
    <g id="Group_16940" data-name="Group 16940" transform="translate(0.062 0.043)">
      <g id="Group_16939-2" data-name="Group 16939" clip-path="url(#clip-path)">
        <path id="Path_21373" data-name="Path 21373" d="M110.425,116.8h-4.936a1.3,1.3,0,0,1-1.47-1.455q0-4.95,0-9.9a1.3,1.3,0,0,1,1.468-1.457h9.9a1.3,1.3,0,0,1,1.444,1.454q0,4.95,0,9.9a1.3,1.3,0,0,1-1.468,1.457h-4.936m5.55-6.406q0-2.469,0-4.938c0-.491-.124-.614-.614-.614h-9.875c-.49,0-.614.124-.614.614q0,4.937,0,9.875c0,.49.123.614.613.614h9.9c.454,0,.588-.134.588-.587q0-2.482,0-4.964" transform="translate(-98.465 -98.441)" stroke="#000" stroke-width="0.5"/>
        <path id="Path_21374" data-name="Path 21374" d="M197.925,1.328V3.364c.134-.1.24-.189.352-.268a.421.421,0,0,1,.615.062.412.412,0,0,1-.079.593c-.34.286-.691.559-1.039.836a.428.428,0,0,1-.521.039c-.352-.208-.7-.414-1.05-.633a.413.413,0,0,1-.148-.58.424.424,0,0,1,.581-.148c.132.067.257.148.41.237V1.335c-.134.1-.24.192-.353.27a.42.42,0,0,1-.615-.071.415.415,0,0,1,.087-.593c.341-.284.691-.559,1.04-.834a.42.42,0,0,1,.563,0c.35.274.7.548,1.04.834a.415.415,0,0,1,.068.614.419.419,0,0,1-.6.047c-.108-.076-.209-.162-.355-.277" transform="translate(-185.529 0)"/>
        <path id="Path_21375" data-name="Path 21375" d="M3.363,197.032c-.1-.136-.194-.242-.273-.356a.415.415,0,0,1,.063-.6.407.407,0,0,1,.594.062c.292.347.572.7.852,1.061a.428.428,0,0,1,.021.523c-.2.335-.4.673-.607,1a.42.42,0,0,1-.592.179.431.431,0,0,1-.131-.625c.063-.115.132-.226.214-.366H1.341c.1.13.188.236.266.349a.418.418,0,0,1-.053.6.413.413,0,0,1-.613-.072c-.285-.341-.559-.691-.833-1.042a.407.407,0,0,1-.007-.541c.278-.358.559-.715.849-1.063a.408.408,0,0,1,.593-.071.415.415,0,0,1,.072.594c-.078.115-.169.222-.275.361Z" transform="translate(0 -185.518)"/>
        <path id="Path_21376" data-name="Path 21376" d="M363.431,197.02c-.107-.138-.2-.246-.278-.362a.412.412,0,0,1,.083-.592.4.4,0,0,1,.575.063,12.977,12.977,0,0,1,.858,1.089.578.578,0,0,1,.017.488,10.484,10.484,0,0,1-.609,1.032.417.417,0,0,1-.6.16.428.428,0,0,1-.124-.608c.063-.116.134-.228.219-.371h-2.155c.09.118.174.223.252.333a.426.426,0,1,1-.67.525c-.273-.328-.535-.666-.8-1a.441.441,0,0,1-.007-.607c.271-.341.539-.685.818-1.02a.412.412,0,0,1,.592-.088.418.418,0,0,1,.074.614c-.076.109-.162.21-.265.343Z" transform="translate(-340.854 -185.512)"/>
        <path id="Path_21377" data-name="Path 21377" d="M197.039,363.526v-2.167c-.137.1-.244.194-.359.272a.424.424,0,1,1-.516-.673c.335-.279.679-.546,1.019-.818a.431.431,0,0,1,.585-.006c.342.269.685.538,1.02.817a.426.426,0,1,1-.522.67c-.107-.076-.207-.161-.34-.265v2.021c.129-.1.236-.186.349-.265a.424.424,0,1,1,.525.665c-.341.285-.691.559-1.04.835a.428.428,0,0,1-.522.031c-.343-.2-.688-.407-1.027-.619a.416.416,0,0,1-.16-.6.425.425,0,0,1,.584-.138c.125.065.244.142.4.236" transform="translate(-185.522 -340.804)"/>
      </g>
    </g>
  </g>
</svg>
