<svg id="Group_18051" data-name="Group 18051" xmlns="http://www.w3.org/2000/svg" width="24" height="24" viewBox="0 0 24 24">
  <g id="Group_16922" data-name="Group 16922">
    <rect id="Rectangle_3461" data-name="Rectangle 3461" width="24" height="24" fill="none"/>
    <path id="margin-3" d="M.648,4.128A.647.647,0,0,0,0,4.776V17.354a.648.648,0,0,0,1.3,0V4.776A.647.647,0,0,0,.648,4.128Zm20.834-.346a.647.647,0,0,0-.648.648V17.008a.648.648,0,0,0,1.3,0V4.43A.647.647,0,0,0,21.482,3.782ZM18,21.482a.647.647,0,0,0-.648-.648H4.776a.648.648,0,1,0,0,1.3H17.354A.647.647,0,0,0,18,21.482ZM18,.648A.647.647,0,0,0,17.354,0H4.776a.648.648,0,0,0,0,1.3H17.354A.647.647,0,0,0,18,.648ZM16.922,17.981H5.208A1.081,1.081,0,0,1,4.128,16.9V5.23A1.081,1.081,0,0,1,5.208,4.149H16.922A1.081,1.081,0,0,1,18,5.23V16.9A1.081,1.081,0,0,1,16.922,17.981Zm-.648-12.1H5.857V16.252H16.274Z" transform="translate(0.935 0.935)"/>
  </g>
</svg>
