<svg xmlns="http://www.w3.org/2000/svg" width="45" height="40" viewBox="0 0 45 40">
  <g id="Group_18109" data-name="Group 18109" transform="translate(-1256.711 -516.497)">
    <rect id="Rectangle_3442" data-name="Rectangle 3442" width="44" height="39" rx="6" transform="translate(1257.211 516.997)" fill="#f13800" stroke="rgba(0,0,0,0)" stroke-miterlimit="10" stroke-width="1"/>
    <g id="delete" transform="translate(1267.846 523.355)">
      <path id="Path_21334" data-name="Path 21334" d="M18,18h1.878V29.266H18Z" transform="translate(-10.49 -8.612)" fill="#fff"/>
      <path id="Path_21335" data-name="Path 21335" d="M27,18h1.878V29.266H27Z" transform="translate(-13.857 -8.612)" fill="#fff"/>
      <path id="Path_21336" data-name="Path 21336" d="M6,9v1.878H7.878V29.654a1.878,1.878,0,0,0,1.878,1.878H24.776a1.878,1.878,0,0,0,1.878-1.878V10.878h1.878V9ZM9.755,29.654V10.878H24.776V29.654Z" transform="translate(-6 -5.245)" fill="#fff"/>
      <path id="Path_21337" data-name="Path 21337" d="M18,3h7.51V4.878H18Z" transform="translate(-10.49 -3)" fill="#fff"/>
    </g>
  </g>
</svg>
