<svg xmlns="http://www.w3.org/2000/svg" width="44" height="44" viewBox="0 0 44 44">
  <g id="Group_18106" data-name="Group 18106" transform="translate(-39 -894)">
    <rect id="Rectangle_4020" data-name="Rectangle 4020" width="44" height="44" rx="22" transform="translate(39 894)" fill="rgba(50,124,174,0.16)"/>
    <path id="Path_23086" data-name="Path 23086" d="M22.377,12.79c0,5.407-5.01,9.79-11.189,9.79a12.671,12.671,0,0,1-3.282-.428,20.424,20.424,0,0,1-5.848,1.726.364.364,0,0,1-.382-.506,14.909,14.909,0,0,0,1.077-4.148A9.1,9.1,0,0,1,0,12.79C0,7.383,5.01,3,11.189,3S22.377,7.383,22.377,12.79Zm-15.384,0a1.4,1.4,0,1,0-1.4,1.4A1.4,1.4,0,0,0,6.993,12.79Zm5.594,0a1.4,1.4,0,1,0-1.4,1.4A1.4,1.4,0,0,0,12.587,12.79Zm4.2,1.4a1.4,1.4,0,1,0-1.4-1.4A1.4,1.4,0,0,0,16.783,14.189Z" transform="translate(49.877 902.804)" fill="#327cae"/>
  </g>
</svg>
