<svg xmlns="http://www.w3.org/2000/svg" width="48" height="48" viewBox="0 0 48 48">
  <g id="Group_18115" data-name="Group 18115" transform="translate(-1523 -677)">
    <g id="Rectangle_4032" data-name="Rectangle 4032" transform="translate(1523 677)" fill="#fff" stroke="#000" stroke-width="0.5">
      <rect width="48" height="48" rx="4" stroke="none"/>
      <rect x="0.25" y="0.25" width="47.5" height="47.5" rx="3.75" fill="none"/>
    </g>
    <g id="layerorderup" transform="translate(1535.805 689.439)">
      <path id="Path_21345" data-name="Path 21345" d="M22.241,12.622,13.706,16.89a4.746,4.746,0,0,1-2.145.452,4.746,4.746,0,0,1-2.145-.452L.881,12.622Q0,12.17,0,11.55t.881-1.073L3.093,9.393l1.581.79L1.445,11.561,11.561,15.9l10.116-4.335-3.229-1.377,1.581-.79,2.213,1.084q.881.452.881,1.073T22.241,12.622Zm0-5.78-8.535,4.268a4.746,4.746,0,0,1-2.145.452,4.746,4.746,0,0,1-2.145-.452L.881,6.842Q0,6.39,0,5.769T.881,4.7L9.416.429A4.958,4.958,0,0,1,11.561,0a4.958,4.958,0,0,1,2.145.429L22.241,4.7q.881.452.881,1.073T22.241,6.842ZM.881,16.28l2.213-1.106,1.581.79L1.445,17.341l10.116,4.335,10.116-4.335-3.229-1.377,1.581-.79,2.213,1.106q.881.429.881,1.061T22.241,18.4L13.706,22.67a4.746,4.746,0,0,1-2.145.452,4.746,4.746,0,0,1-2.145-.452L.881,18.4Q0,17.973,0,17.341T.881,16.28Z" transform="translate(0 0)"/>
    </g>
  </g>
</svg>
