<svg id="Group_18116" data-name="Group 18116" xmlns="http://www.w3.org/2000/svg" width="48" height="48" viewBox="0 0 48 48">
  <g id="Rectangle_4032" data-name="Rectangle 4032" fill="#fff" stroke="#000" stroke-width="0.5">
    <rect width="48" height="48" rx="4" stroke="none"/>
    <rect x="0.25" y="0.25" width="47.5" height="47.5" rx="3.75" fill="none"/>
  </g>
  <g id="link-45deg" transform="translate(13.413 13.413)">
    <g id="Group_16851" data-name="Group 16851">
      <path id="Path_21346" data-name="Path 21346" d="M11.7,18.493,9.073,21.117a5.738,5.738,0,0,0,8.115,8.115l3.5-3.5A5.738,5.738,0,0,0,19.1,16.5L17.98,17.621a1.916,1.916,0,0,0-.295.381,3.825,3.825,0,0,1,1.647,6.382l-3.494,3.5a3.827,3.827,0,0,1-5.413-5.413l1.517-1.515a7.685,7.685,0,0,1-.245-2.461Z" transform="translate(-7.393 -9.74)"/>
      <path id="Path_21347" data-name="Path 21347" d="M18.8,11.073a5.738,5.738,0,0,0,1.584,9.234l1.482-1.484a3.825,3.825,0,0,1-1.714-6.4l3.494-3.5a3.827,3.827,0,0,1,5.413,5.413l-1.517,1.515a7.694,7.694,0,0,1,.245,2.461l2.624-2.624A5.738,5.738,0,1,0,22.3,7.576Z" transform="translate(-10.919 -5.896)"/>
    </g>
  </g>
</svg>
