<svg id="data-integration-hub-svgrepo-com" xmlns="http://www.w3.org/2000/svg" width="31.363" height="29.109" viewBox="0 0 31.363 29.109">
  <path id="Path_23087" data-name="Path 23087" d="M48.349,25.029a3.7,3.7,0,0,0-3.688,3.688,4.037,4.037,0,0,0,.1.831l-3.481,2.286a5.9,5.9,0,0,0-4.468-2.078A5.771,5.771,0,0,0,33.232,31l-5.714-3.948a3.449,3.449,0,1,0-2.026,2.338l5.87,4.1a5.491,5.491,0,0,0-.416,2.078,9.272,9.272,0,0,0,.1,1.195l-3.584,1.3a3.86,3.86,0,1,0,.831,3.584,2.607,2.607,0,0,0,.1-.623l4.1-1.455a5.892,5.892,0,0,0,4.26,1.87h.468l.571,2.909a4.25,4.25,0,0,0-1.558,3.74,4.332,4.332,0,1,0,4.623-4.727L40.245,40.3a5.875,5.875,0,0,0,2.442-4.727c0-.312-.052-.623-.052-.883l4.1-2.7a3.748,3.748,0,0,0,1.662.416,3.7,3.7,0,0,0,3.688-3.688A3.782,3.782,0,0,0,48.349,25.029ZM36.816,39.366a3.74,3.74,0,1,1,3.74-3.74A3.725,3.725,0,0,1,36.816,39.366Z" transform="translate(-20.725 -22.898)" fill="#929191"/>
  <circle id="Ellipse_258" data-name="Ellipse 258" cx="1.662" cy="1.662" r="1.662" transform="translate(14.48 11.066)" fill="#929191"/>
</svg>
