<svg xmlns="http://www.w3.org/2000/svg" xmlns:xlink="http://www.w3.org/1999/xlink" width="24" height="24" viewBox="0 0 24 24">
  <defs>
    <clipPath id="clip-path">
      <rect id="Rectangle_4027" data-name="Rectangle 4027" width="21.836" height="21.843"/>
    </clipPath>
  </defs>
  <g id="Group_18101" data-name="Group 18101" transform="translate(-1808.861 -47.06)">
    <rect id="Rectangle_4028" data-name="Rectangle 4028" width="24" height="24" transform="translate(1808.861 47.06)" fill="none"/>
    <g id="Group_18047" data-name="Group 18047" transform="translate(1809.943 48.138)">
      <g id="Group_18046" data-name="Group 18046" clip-path="url(#clip-path)">
        <path id="Path_23113" data-name="Path 23113" d="M0,10.925A10.918,10.918,0,1,1,10.9,21.843,10.921,10.921,0,0,1,0,10.925M7.719,8.788a17.948,17.948,0,0,0,.012,4.328.273.273,0,0,0,.2.168c2.1.009,4.207.006,6.311.01.165,0,.222-.065.233-.222.025-.371.088-.74.09-1.111,0-1.052-.013-2.105-.022-3.172ZM14.085,6.66c-.016-.092-.025-.169-.044-.244a15.408,15.408,0,0,0-1.615-3.95.548.548,0,0,0-.507-.317c-.576-.007-1.153-.023-1.729-.008a.462.462,0,0,0-.334.2c-.367.69-.749,1.376-1.05,2.1s-.5,1.454-.76,2.219Zm-.053,8.774H8.159A14.42,14.42,0,0,0,9.918,19.6a.289.289,0,0,0,.213.112c.644,0,1.288-.014,1.93-.044a.422.422,0,0,0,.288-.189c.246-.421.487-.847.7-1.287a13.506,13.506,0,0,0,.984-2.753M2.388,8.8a.757.757,0,0,0-.056.131,9.037,9.037,0,0,0,.044,4.185c.044.179.143.195.295.194.91,0,1.819,0,2.729,0a1.868,1.868,0,0,0,.191-.014V8.8Zm14.22,4.507c.871,0,1.778,0,2.685-.009.063,0,.16-.123.181-.2A8.791,8.791,0,0,0,19.54,9c-.036-.168-.1-.223-.273-.219-.449.01-.9,0-1.349,0H16.608ZM7.083,2.983a8.8,8.8,0,0,0-3.889,3.7c.919,0,1.777,0,2.636-.008.06,0,.148-.109.171-.183.071-.233.1-.478.176-.71.294-.928.6-1.852.907-2.8M7.062,18.86c-.338-1.1-.671-2.2-1.018-3.3a.294.294,0,0,0-.226-.147c-.772-.011-1.544-.007-2.317,0a.8.8,0,0,0-.155.038,8.81,8.81,0,0,0,3.716,3.41m9.253-12.2h2.344a9,9,0,0,0-3.425-3.446l1.082,3.446M15.157,18.686A8.947,8.947,0,0,0,18.53,15.41c-.774,0-1.476-.006-2.178.009-.075,0-.188.116-.214.2-.136.447-.234.907-.377,1.352-.177.554-.385,1.1-.6,1.715" transform="translate(0 0)"/>
      </g>
    </g>
  </g>
</svg>
