<svg id="noun-automation-1116075" xmlns="http://www.w3.org/2000/svg" width="31.289" height="31.289" viewBox="0 0 31.289 31.289">
  <path id="Path_23089" data-name="Path 23089" d="M121.538,23.495h-6.851l-.88-1.362a1.31,1.31,0,0,0-1.095-.593h-2.907a1.307,1.307,0,0,0-1.3,1.3v9.778a1.307,1.307,0,0,0,1.3,1.3h7.552l-5.187,5.187-.24-.24a.947.947,0,0,0-.678-.287.962.962,0,0,0-.685.287l-.757.756-.658-.274V38.148a.963.963,0,0,0-.965-.965h-1.982a.963.963,0,0,0-.965.965v1.206l-.658.274-.756-.756a.962.962,0,0,0-.685-.287.946.946,0,0,0-.678.287l-.238.238-5.185-5.185h7.548a1.307,1.307,0,0,0,1.3-1.3V24.8a1.307,1.307,0,0,0-1.3-1.3H97.74l-.88-1.362a1.31,1.31,0,0,0-1.095-.593H92.858a1.307,1.307,0,0,0-1.3,1.3v9.778a1.307,1.307,0,0,0,1.3,1.3H95.2l6.107,6.107-.242.242a.947.947,0,0,0-.287.678.962.962,0,0,0,.287.685l.75.75c-.124.28-.215.5-.287.665h-1.186a.963.963,0,0,0-.965.965V46a.963.963,0,0,0,.965.965h1.206l.274.658-.756.756a.952.952,0,0,0,0,1.362l1.4,1.4a.96.96,0,0,0,1.362,0l.756-.756.658.274v1.206a.963.963,0,0,0,.965.965h1.982a.963.963,0,0,0,.965-.965V50.657l.658-.274.756.763a.966.966,0,0,0,1.362-.007l1.4-1.4a.952.952,0,0,0,0-1.362l-.756-.756.274-.658h1.206a.963.963,0,0,0,.965-.965V44.015a.963.963,0,0,0-.965-.965H112.85l-.274-.658.763-.756a.984.984,0,0,0,.28-.685.946.946,0,0,0-.287-.678l-.24-.24,6.109-6.109h2.338a1.307,1.307,0,0,0,1.3-1.3V24.8a1.307,1.307,0,0,0-1.3-1.3ZM107.2,48.415a3.409,3.409,0,1,1,3.409-3.409A3.416,3.416,0,0,1,107.2,48.415Z" transform="translate(-91.554 -21.539)" fill="#929191"/>
</svg>
