<svg id="noun-setting-1771173" xmlns="http://www.w3.org/2000/svg" width="29.332" height="29.333" viewBox="0 0 29.332 29.333">
  <path id="Path_23090" data-name="Path 23090" d="M154.289,68.016h-1.463a.275.275,0,0,1-.259-.217,12.169,12.169,0,0,0-1.448-3.5.292.292,0,0,1,.034-.362l1.025-1.025a1.048,1.048,0,0,0,0-1.474L149.9,59.159a1.045,1.045,0,0,0-1.474,0l-1.029,1.029a.291.291,0,0,1-.358.03,12.17,12.17,0,0,0-3.5-1.448.275.275,0,0,1-.217-.259V57.049a1.045,1.045,0,0,0-1.044-1.044h-3.223a1.045,1.045,0,0,0-1.044,1.044v1.463a.271.271,0,0,1-.217.259,12.08,12.08,0,0,0-3.5,1.448.292.292,0,0,1-.362-.034l-1.025-1.025a1.048,1.048,0,0,0-1.474,0l-2.282,2.282a1.048,1.048,0,0,0,0,1.474l1.025,1.025a.292.292,0,0,1,.034.362,12.169,12.169,0,0,0-1.448,3.5.274.274,0,0,1-.259.217h-1.463A1.046,1.046,0,0,0,126,69.06v3.223a1.045,1.045,0,0,0,1.044,1.044H128.5a.294.294,0,0,1,.278.232,12.114,12.114,0,0,0,1.516,3.6c.015.027.034.053.05.08l-1.185,1.185a1.048,1.048,0,0,0,0,1.474l2.282,2.282a1.048,1.048,0,0,0,1.474,0l1.025-1.025a.292.292,0,0,1,.358-.034,12.157,12.157,0,0,0,3.5,1.444.271.271,0,0,1,.217.259v1.466a1.045,1.045,0,0,0,1.044,1.044h3.223a1.045,1.045,0,0,0,1.044-1.044V82.831a.275.275,0,0,1,.217-.259,12.17,12.17,0,0,0,3.5-1.448.292.292,0,0,1,.362.034l1.025,1.025a1.048,1.048,0,0,0,1.474,0l2.282-2.282a1.048,1.048,0,0,0,0-1.474L151.153,77.4a.292.292,0,0,1-.034-.362,12.17,12.17,0,0,0,1.448-3.5.274.274,0,0,1,.259-.217h1.463a1.045,1.045,0,0,0,1.044-1.044V69.06a1.046,1.046,0,0,0-1.044-1.044Zm-9.443,1.033L141.893,72l-2.56-2.556,2.952-2.952a4,4,0,0,0-5.051,5.051l-3.124,3.124a7.678,7.678,0,1,1,2.64,2.609l3.139-3.139a4.006,4.006,0,0,0,4.956-5.089Z" transform="translate(-126 -56.005)" fill="#929191"/>
</svg>
