<svg id="send" xmlns="http://www.w3.org/2000/svg" width="16.563" height="16.563" viewBox="0 0 16.563 16.563">
  <path id="Path_23091" data-name="Path 23091" d="M16.3.1a.578.578,0,0,1,.25.592l-2.366,14.2a.583.583,0,0,1-.3.416.567.567,0,0,1-.287.074.622.622,0,0,1-.222-.046l-4.187-1.71L6.958,16.351a.544.544,0,0,1-.453.213.5.5,0,0,1-.2-.037.592.592,0,0,1-.388-.555V12.746L13.9,2.958l-9.881,8.55L.368,10.01A.585.585,0,0,1,.294,8.956L15.674.083A.565.565,0,0,1,15.97,0,.574.574,0,0,1,16.3.1Z" transform="translate(0.003)" fill="#fff"/>
</svg>
