<svg xmlns="http://www.w3.org/2000/svg" width="29.088" height="27.169" viewBox="0 0 29.088 27.169">
  <path id="shapes-outline_1" d="M27.4,29.566a9.442,9.442,0,0,0-3.562-3.59A9.528,9.528,0,0,0,15.3,25.5l-4.422-7.916a.955.955,0,0,0-1.664,0l-9.05,16.2A.953.953,0,0,0,1,35.2h8.62A9.526,9.526,0,1,0,27.4,29.566ZM10.045,20,17.471,33.3H2.62ZM25.711,38.041a7.644,7.644,0,0,1-6.61,3.83,7.665,7.665,0,0,1-3.8-1.01A7.641,7.641,0,0,1,11.536,35.2h7.57a.953.953,0,0,0,.832-1.418l-.006.006-3.69-6.6a7.5,7.5,0,0,1,2.853-.558,7.665,7.665,0,0,1,3.8,1.01,7.644,7.644,0,0,1,3.83,6.61A7.665,7.665,0,0,1,25.711,38.041Z" transform="translate(0.213 -16.85)" fill="#fff" stroke="#fff" stroke-width="0.5"/>
</svg>
